<?xml version="1.0" encoding="UTF-8" standalone="no"?>
<!DOCTYPE svg PUBLIC "-//W3C//DTD SVG 1.1//EN" "http://www.w3.org/Graphics/SVG/1.1/DTD/svg11.dtd">
<svg width="512px" height="512px" version="1.1" xmlns="http://www.w3.org/2000/svg" xmlns:xlink="http://www.w3.org/1999/xlink" xml:space="preserve" xmlns:serif="http://www.serif.com/" style="fill-rule:evenodd;clip-rule:evenodd;stroke-linejoin:round;stroke-miterlimit:2;">
    <path d="M167.228,354.362c-63.835,-36.203 -130.742,-117.123 -122.914,-217.255c0.725,64.361 31.162,89.503 79.149,125.512c-19.538,-70.738 -9.63,-175.267 66.71,-240.536c-44.998,46.023 -41.254,85.323 -32.784,144.717c36.204,-63.835 117.123,-130.742 217.256,-122.914c-64.362,0.725 -89.504,31.162 -125.512,79.149c70.737,-19.538 175.266,-9.63 240.536,66.71c-46.024,-44.998 -85.324,-41.254 -144.718,-32.784c63.835,36.204 130.742,117.123 122.914,217.256c-0.725,-64.362 -31.161,-89.504 -79.149,-125.512c19.538,70.737 9.63,175.266 -66.71,240.536c44.998,-46.024 41.255,-85.324 32.784,-144.718c-36.203,63.835 -117.123,130.742 -217.255,122.914c64.361,-0.725 89.503,-31.161 125.512,-79.149c-70.738,19.538 -175.267,9.63 -240.536,-66.71c46.023,44.998 85.323,41.255 144.717,32.784Zm-5.297,-99.62c-0.037,0.071 -0.074,0.142 -0.112,0.213l5.371,6.453c28.153,33.655 59.673,51.273 91.39,50.894c31.719,-0.376 61.702,-18.772 86.773,-51.201l4.86,-6.32l-4.962,-6.219c-25.301,-31.718 -55.806,-48.339 -86.736,-48.857c-1.001,-0.018 -1.993,-0.018 -2.99,0.001c-31.955,0.537 -62.868,17.994 -88.335,48.687l-5.259,6.349Zm82.346,-33.563c-14.25,5.262 -24.428,18.984 -24.428,35.064c-0,14.7 8.512,27.405 20.863,33.499c-16.952,-4.46 -34.516,-15.711 -52.051,-34.858c17.637,-19.074 36.672,-30.247 55.616,-33.705Zm26.271,0.136c18.123,3.525 36.277,14.312 53.435,33.704c-16.424,19.303 -33.627,30.8 -50.927,35.064c12.718,-5.958 21.505,-18.868 21.505,-33.841c-0,-15.937 -9.962,-29.561 -24.013,-34.927Z" style="fill:white;"/>
</svg>
