<?xml version="1.0" encoding="UTF-8" standalone="no"?>
<!DOCTYPE svg PUBLIC "-//W3C//DTD SVG 1.1//EN" "http://www.w3.org/Graphics/SVG/1.1/DTD/svg11.dtd">
<svg width="36px" height="36px" version="1.1" xmlns="http://www.w3.org/2000/svg" xmlns:xlink="http://www.w3.org/1999/xlink" xml:space="preserve" xmlns:serif="http://www.serif.com/" style="fill-rule:evenodd;clip-rule:evenodd;stroke-linejoin:round;stroke-miterlimit:2;">
    <path d="M5.213,26.934C3.44,24.402 2.4,21.322 2.4,18C2.4,15.253 3.111,12.671 4.36,10.428C5.067,10.83 5.914,11.263 6.833,11.726C6.953,11.787 7.075,11.848 7.198,11.91C6.181,13.709 5.6,15.787 5.6,18C5.6,20.101 6.124,22.081 7.048,23.817C6.395,24.888 5.778,25.941 5.213,26.934ZM9.898,4.669C12.26,3.23 15.034,2.4 18,2.4C20.947,2.4 23.704,3.219 26.056,4.641C25.065,5.266 24.041,5.956 23.035,6.666C21.496,5.981 19.792,5.6 18,5.6C16.195,5.6 14.48,5.987 12.932,6.681C11.878,5.942 10.841,5.25 9.898,4.669ZM32.047,11.211C33.042,13.264 33.6,15.567 33.6,18C33.6,20.955 32.777,23.719 31.347,26.076C30.716,25.111 30.032,24.106 29.308,23.092C30.009,21.538 30.4,19.814 30.4,18C30.4,16.122 29.981,14.34 29.232,12.744C30.222,12.187 31.182,11.671 32.047,11.211ZM26.897,30.813C24.372,32.57 21.306,33.6 18,33.6C15.261,33.6 12.687,32.893 10.449,31.651C11.173,30.861 11.856,30.016 12.529,29.129C14.18,29.943 16.037,30.4 18,30.4C20.591,30.4 22.997,29.604 24.987,28.243C25.659,29.193 26.283,30.06 26.897,30.813ZM18.937,18.721C14.472,23.423 12.091,28.355 8.405,31.828C6.052,34.045 2.673,34.558 3.482,32.956C5.077,29.794 10.138,20.295 14.822,15.325C11.696,12.013 5.377,9.921 3.672,8.375C3.254,7.065 5.068,3.959 6.348,4.333C8.619,4.995 14.591,9.368 18.041,12.255C21.861,8.869 30.081,3.03 32.758,3.03C34.53,3.03 35.294,8.119 33.788,8.768C31.164,10.214 25.168,13.164 21.748,16.127C27.054,21.292 32.26,29.645 33.788,32.939C34.349,34.149 29.912,32.036 28.956,31.107C26.348,28.573 23.973,23.595 18.937,18.721Z" style="fill:rgb(73,36,79);"/>
</svg>
