<?xml version="1.0" encoding="UTF-8" standalone="no"?>
<!DOCTYPE svg PUBLIC "-//W3C//DTD SVG 1.1//EN" "http://www.w3.org/Graphics/SVG/1.1/DTD/svg11.dtd">
<svg width="36px" height="36px" version="1.1" xmlns="http://www.w3.org/2000/svg" xmlns:xlink="http://www.w3.org/1999/xlink" xml:space="preserve" xmlns:serif="http://www.serif.com/" style="fill-rule:evenodd;clip-rule:evenodd;stroke-linejoin:round;stroke-miterlimit:2;">
    <path d="M30.986,9.357C32.637,11.832 33.6,14.804 33.6,18C33.6,26.61 26.61,33.6 18,33.6C9.39,33.6 2.4,26.61 2.4,18C2.4,9.39 9.39,2.4 18,2.4C21.347,2.4 24.448,3.456 26.99,5.253C26.186,5.988 25.401,6.754 24.654,7.537C22.731,6.311 20.448,5.6 18,5.6C11.156,5.6 5.6,11.156 5.6,18C5.6,24.844 11.156,30.4 18,30.4C24.844,30.4 30.4,24.844 30.4,18C30.4,15.964 29.908,14.041 29.037,12.346C29.561,11.516 30.185,10.564 30.986,9.357ZM6.786,19.461C5.419,18.906 7.627,18.419 8.327,18.182C8.949,17.971 10.678,17.922 11.27,18.202C12.646,18.852 14.65,19.898 16.579,22.083C17.702,19.577 20.764,14.568 22.596,12.046C25.565,7.957 30.286,3.813 34.236,1.364C35.248,0.737 31.18,6.653 30.035,8.378C26.685,13.425 26.291,14.177 23.823,19.273C21.292,24.498 20.221,27.177 18.718,29.078C18.071,29.896 16.411,29.72 15.616,29.057C13.631,27.403 11.804,21.495 6.786,19.461Z" style="fill:rgb(73,36,79);"/>
</svg>
