<?xml version="1.0" encoding="UTF-8" standalone="no"?>
<!DOCTYPE svg PUBLIC "-//W3C//DTD SVG 1.1//EN" "http://www.w3.org/Graphics/SVG/1.1/DTD/svg11.dtd">
<svg width="252px" height="609px" version="1.1" xmlns="http://www.w3.org/2000/svg" xmlns:xlink="http://www.w3.org/1999/xlink" xml:space="preserve" xmlns:serif="http://www.serif.com/" style="fill-rule:evenodd;clip-rule:evenodd;stroke-linejoin:round;stroke-miterlimit:2;">
    <path d="M252,0L252,609L189,567L126,609L63,567L0,609L0,0L252,0Z" style="fill:rgb(119,91,123);"/>
    <path d="M252,0L252,609L189,567L126,609L63,567L0,609L0,0L252,0ZM248,4L4,4L4,601.526L60.781,563.672C62.125,562.776 63.875,562.776 65.219,563.672C65.219,563.672 126,604.193 126,604.193L186.781,563.672C188.125,562.776 189.875,562.776 191.219,563.672L248,601.526L248,4Z" style="fill:rgb(105,80,108);"/>
</svg>
