<?xml version="1.0" encoding="UTF-8" standalone="no"?>
<!DOCTYPE svg PUBLIC "-//W3C//DTD SVG 1.1//EN" "http://www.w3.org/Graphics/SVG/1.1/DTD/svg11.dtd">
<svg width="369px" height="369px" version="1.1" xmlns="http://www.w3.org/2000/svg" xmlns:xlink="http://www.w3.org/1999/xlink" xml:space="preserve" xmlns:serif="http://www.serif.com/" style="fill-rule:evenodd;clip-rule:evenodd;stroke-linejoin:round;stroke-miterlimit:2;">
    <path d="M75.06,259.306L0,184L75.165,108.971L54.165,53.892L109.288,74.91L184.223,0.11L184.273,-0L184.322,0.11L259.243,74.915L314.38,53.892L293.372,108.991L368.498,184C358.154,194.381 315.965,238.068 294.048,260.782L314.38,314.108L260.761,293.663C234.142,319.196 190.256,361.368 189.962,361.368C189.945,361.368 189.394,361.376 189.39,361.368C188.98,360.382 226.548,325.208 258.584,292.833L223.871,279.598L184.919,366.557C184.823,366.786 184.742,366.978 184.74,366.982C184.525,367.425 184.422,367.791 184.279,367.985L184.273,368L184.271,367.996C183.959,368.401 183.449,367.99 181.211,365.796C180.373,364.975 175.989,360.568 175.161,359.737L108.886,293.244L54.165,314.108L75.06,259.306ZM76.069,111.342L6.192,181.349L88.675,144.402L76.069,111.342ZM6.216,186.662L76.172,256.39L88.675,223.598L6.216,186.662ZM106.185,78.007C84.037,69.563 61.084,60.811 61.084,60.811L78.266,105.876L106.185,78.007ZM181.884,5.332L111.567,75.779L144.675,88.402L181.884,5.332ZM256.992,75.773L186.66,5.331L223.871,88.402L256.992,75.773ZM290.272,105.895L307.461,60.811L262.346,78.013L290.272,105.895ZM292.825,257.575C313.246,236.684 349.324,199.811 362.441,186.612L279.871,223.598L292.825,257.575ZM362.438,181.387L292.484,111.321L279.871,144.402L362.438,181.387ZM263.954,290.6C285.596,298.852 307.461,307.189 307.461,307.189L290.98,263.962C284.681,270.49 280.691,274.628 280.685,274.631C280.579,274.675 273.783,281.176 263.954,290.6ZM181.148,361.024L144.675,279.598L111.967,292.069L181.148,361.024ZM108.861,288.972L146.78,274.514C146.78,274.514 184.273,358.215 184.273,358.215L221.765,274.514C221.765,274.514 241.26,281.947 261.653,289.723C267.511,283.768 273.131,277.951 278.238,272.505C278.258,272.483 282.766,267.866 289.746,260.725L274.787,221.492C274.787,221.492 358.488,184 358.488,184L274.787,146.508L289.386,108.219L260.088,78.874L221.765,93.486C221.765,93.486 184.273,9.785 184.273,9.785L146.78,93.486C146.78,93.486 128.281,86.432 108.472,78.88L79.167,108.239L93.758,146.508C93.758,146.508 10.057,184 10.057,184L93.758,221.492C93.758,221.492 86.78,239.794 79.274,259.482L108.861,288.972ZM78.156,262.413C69.75,284.46 61.084,307.189 61.084,307.189L105.794,290.142L78.156,262.413ZM125.358,240.086L69.273,184L125.358,127.914L122.931,125.487C122.151,124.706 102.352,103.64 103.132,102.859C103.913,102.079 124.979,121.878 125.759,122.658L128.187,125.086L184.273,69L240.358,125.086L242.786,122.658C243.566,121.878 264.633,102.079 265.413,102.859C266.194,103.64 246.395,124.706 245.614,125.487L243.187,127.914L299.273,184L243.187,240.086L245.614,242.513C246.395,243.294 266.194,264.36 265.413,265.141C264.633,265.921 243.566,246.122 242.786,245.342L240.358,242.914L184.273,299L128.187,242.914L125.759,245.342C124.979,246.122 103.913,265.921 103.132,265.141C102.352,264.36 122.151,243.294 122.931,242.513L125.358,240.086ZM127.244,129.8L74.738,182.306C76.016,182.112 77.132,182 77.523,182L95.721,182C96.825,182 125.721,182.896 125.721,184C125.721,185.104 96.825,186 95.721,186L77.523,186C77.132,186 76.016,185.888 74.738,185.694L127.244,238.2L135.799,229.645C136.58,228.864 142.09,224.622 142.87,225.402C143.651,226.183 139.408,231.693 138.628,232.473L130.072,241.029L182.579,293.535C182.385,292.256 182.273,291.141 182.273,290.75L182.273,272.551C182.273,271.448 183.169,242.551 184.273,242.551C185.376,242.551 186.273,271.448 186.273,272.551L186.273,290.75C186.273,291.141 186.16,292.256 185.967,293.535L238.473,241.029L229.917,232.473C229.137,231.693 224.894,226.183 225.675,225.402C226.455,224.622 231.965,228.864 232.746,229.645L241.301,238.2L293.807,185.694C292.529,185.888 291.413,186 291.023,186L272.824,186C271.72,186 242.824,185.104 242.824,184C242.824,182.896 271.72,182 272.824,182L291.023,182C291.413,182 292.529,182.112 293.807,182.306L241.301,129.8L232.746,138.355C231.965,139.136 226.455,143.378 225.675,142.598C224.894,141.817 229.137,136.307 229.917,135.527L238.473,126.971L185.967,74.465C186.16,75.744 186.273,76.859 186.273,77.25L186.273,95.449C186.273,96.552 185.376,125.449 184.273,125.449C183.169,125.449 182.273,96.552 182.273,95.449L182.273,77.25C182.273,76.859 182.385,75.744 182.579,74.465L130.072,126.971L138.628,135.527C139.408,136.307 143.651,141.817 142.87,142.598C142.09,143.378 136.58,139.136 135.799,138.355L127.244,129.8Z" style="fill:rgb(73,36,79,0.2);"/>
</svg>
