<?xml version="1.0" encoding="UTF-8" standalone="no"?>
<!DOCTYPE svg PUBLIC "-//W3C//DTD SVG 1.1//EN" "http://www.w3.org/Graphics/SVG/1.1/DTD/svg11.dtd">
<svg width="981px" height="25px" version="1.1" xmlns="http://www.w3.org/2000/svg" xmlns:xlink="http://www.w3.org/1999/xlink" xml:space="preserve" xmlns:serif="http://www.serif.com/" style="fill-rule:evenodd;clip-rule:evenodd;stroke-linejoin:round;stroke-miterlimit:2;">
    <path d="M458.111,14.25L50.31,14.25C49.761,14.625 49.247,15.005 48.87,15.339C47.411,16.63 44.781,20 44.781,20C44.781,20 42.15,16.63 40.692,15.339C40.315,15.005 39.801,14.625 39.252,14.25L37.783,14.25C36.197,15.155 34.483,16.223 33.461,17.132C31.167,19.174 27.773,24.5 27.773,24.5C27.773,24.5 22.523,18.649 19.084,17.132C14.455,15.091 0,12.25 0,12.25C0,12.25 14.455,9.409 19.084,7.368C22.523,5.851 27.773,0 27.773,0C27.773,0 31.167,5.326 33.461,7.368C34.483,8.277 36.197,9.345 37.783,10.25L39.252,10.25C39.801,9.875 40.315,9.495 40.692,9.161C42.15,7.87 44.781,4.5 44.781,4.5C44.781,4.5 47.411,7.87 48.87,9.161C49.247,9.495 49.761,9.875 50.31,10.25L458.111,10.25C458.07,10.911 458.05,11.578 458.05,12.25C458.05,12.922 458.07,13.589 458.111,14.25ZM522.42,10.25L930.221,10.25C930.77,9.875 931.284,9.495 931.661,9.161C933.12,7.87 935.75,4.5 935.75,4.5C935.75,4.5 938.38,7.87 939.839,9.161C940.216,9.495 940.73,9.875 941.279,10.25L942.748,10.25C944.334,9.345 946.048,8.277 947.07,7.368C949.364,5.326 952.758,0 952.758,0C952.758,0 958.008,5.851 961.447,7.368C966.075,9.409 980.531,12.25 980.531,12.25C980.531,12.25 966.075,15.091 961.447,17.132C958.008,18.649 952.758,24.5 952.758,24.5C952.758,24.5 949.364,19.174 947.07,17.132C946.048,16.223 944.334,15.155 942.748,14.25L941.279,14.25C940.73,14.625 940.216,15.005 939.839,15.339C938.38,16.63 935.75,20 935.75,20C935.75,20 933.12,16.63 931.661,15.339C931.284,15.005 930.77,14.625 930.221,14.25L522.42,14.25C522.461,13.589 522.481,12.922 522.481,12.25C522.481,11.578 522.461,10.911 522.42,10.25Z"/>
</svg>
