<?xml version="1.0" encoding="UTF-8" standalone="no"?>
<!DOCTYPE svg PUBLIC "-//W3C//DTD SVG 1.1//EN" "http://www.w3.org/Graphics/SVG/1.1/DTD/svg11.dtd">
<svg width="154" height="26" version="1.1" xmlns="http://www.w3.org/2000/svg" xmlns:xlink="http://www.w3.org/1999/xlink" xml:space="preserve" xmlns:serif="http://www.serif.com/" style="fill-rule:evenodd;clip-rule:evenodd;stroke-linejoin:round;stroke-miterlimit:2;">
    <g transform="matrix(0.217662,0,0,0.18959,-18.347,-129.941)">
        <path d="M84.778,738.99C84.979,736.025 85.234,733.175 85.533,730.443C91.616,727.523 97.919,725.379 103.905,724.156C102.727,723.284 101.695,722.244 100.876,721.045C96.05,713.984 98.188,698.897 112.664,691.168C122.641,686.92 130.826,685.38 137.539,685.38C150.412,685.38 157.873,691.044 162.181,694.14C166.167,697.006 146.963,691.763 140.934,705.957C139.343,712.877 132.692,720.584 125.537,724.372C140.234,727.998 155.424,738.294 165.385,750.362C165.438,750.426 165.489,750.491 165.537,750.559C178.654,768.841 199.657,776.729 215.987,776.729C232.207,776.729 254.524,764.716 263.198,750.76C263.284,750.623 263.379,750.491 263.482,750.366C276.939,734.02 292.624,725.149 310.388,723.328C309.628,722.647 308.95,721.885 308.376,721.045C303.55,713.984 305.688,698.897 320.164,691.168C330.141,686.92 338.326,685.38 345.039,685.38C357.912,685.38 365.373,691.044 369.681,694.14C373.667,697.006 354.463,691.763 348.434,705.957C346.898,712.641 340.639,720.06 333.766,723.971C349.636,726.765 363.765,735.455 376.04,750.366C376.143,750.491 376.238,750.623 376.324,750.76C384.998,764.716 407.315,776.729 423.535,776.729C439.865,776.729 460.868,768.841 473.985,750.559C474.033,750.491 474.084,750.426 474.136,750.362C485.036,737.158 502.194,726.075 518.118,723.529C517.265,722.798 516.507,721.969 515.876,721.045C511.05,713.984 513.188,698.897 527.664,691.168C537.641,686.92 545.826,685.38 552.539,685.38C565.412,685.38 572.873,691.044 577.181,694.14C581.167,697.006 561.963,691.763 555.934,705.957C554.249,713.287 546.885,721.501 539.259,725.004C554.123,728.876 570.233,738.062 579.789,750.457C579.831,750.512 579.872,750.568 579.911,750.625C582.282,754.089 584.799,757.165 587.452,759.877C616.104,748.602 609.489,734.69 605.472,724.641C603.324,719.266 601.373,712.793 601.209,708.874C600.737,697.567 612.488,692.965 619.63,700.523C619.799,688.302 645.272,682.92 645.272,700.523C653.436,688.164 670.49,694.842 669.555,710.624C674.883,706.422 684.332,708.73 683.403,719.146C679.419,763.849 616.083,785.232 588.064,760.494C599.299,771.658 612.926,776.447 628.234,776.75C647.464,776.37 664.042,768.909 676.557,750.625C676.596,750.568 676.637,750.512 676.679,750.457C687.022,737.042 705.042,727.385 720.851,724.156C719.673,723.284 718.641,722.244 717.822,721.045C712.997,713.984 715.134,698.897 729.611,691.168C739.588,686.92 747.772,685.38 754.485,685.38C767.359,685.38 774.819,691.044 779.127,694.14C783.114,697.006 763.909,691.763 757.88,705.957C756.29,712.877 749.638,720.584 742.483,724.372C757.181,727.998 772.37,738.294 782.332,750.362C782.384,750.426 782.435,750.491 782.483,750.559C784.962,754.013 787.721,757.096 790.678,759.826C790.596,763.013 790.448,766.086 790.246,769.043C785.232,765.16 780.586,760.472 776.589,754.924C765.487,741.532 747.341,730.313 731.683,730.313C715.982,730.313 694.033,740.025 682.56,754.838C670.058,773.065 653.96,781.702 635.357,783.66C635.234,783.754 635.098,783.832 634.951,783.889C641.85,787.791 648.143,795.235 649.684,801.94C655.713,816.135 674.917,810.892 670.931,813.757C664.377,818.468 650.524,829.123 621.414,816.73C606.938,809 604.8,793.913 609.626,786.852C610.826,785.096 612.482,783.682 614.383,782.633C598.618,779.44 584.882,770.832 573.909,754.841C562.429,740.022 540.483,730.313 524.785,730.313C513.932,730.313 501.884,735.703 491.816,743.468C521.647,724.625 578.631,746.045 582.403,788.373C583.332,798.789 573.883,801.096 568.555,796.895C569.49,812.677 552.436,819.354 544.272,806.995C544.272,824.599 518.799,819.217 518.63,806.995C511.488,814.554 499.737,809.951 500.209,798.645C500.373,794.726 502.324,788.252 504.472,782.878C508.476,772.861 515.061,759.005 486.726,747.75C484.242,750.028 481.939,752.438 479.88,754.922C468.093,771.291 450.644,780.166 434.788,783.024C442.314,786.596 449.52,794.7 451.184,801.94C457.213,816.135 476.417,810.892 472.431,813.757C465.877,818.468 452.024,829.123 422.914,816.73C408.438,809 406.3,793.913 411.126,786.852C412.124,785.392 413.438,784.168 414.945,783.194C398.08,779.972 378.66,768.205 370.227,754.842C356.437,738.178 340.125,730.084 321.33,730.312L321.309,730.313L318.213,730.313L318.192,730.312C299.396,730.084 283.083,738.179 269.294,754.844C260.93,768.099 241.75,779.785 224.978,783.115C232.435,786.733 239.534,794.761 241.184,801.94C247.213,816.135 266.417,810.892 262.431,813.757C255.877,818.468 242.024,829.123 212.914,816.73C198.438,809 196.3,793.913 201.126,786.852C202.159,785.34 203.532,784.081 205.107,783.09C189.155,780.305 171.527,771.422 159.642,754.924C148.541,741.532 130.395,730.313 114.737,730.313C105.752,730.313 94.721,733.493 84.778,738.99ZM786.447,796.419C783.48,799.607 778.29,799.62 774.835,796.895C775.77,812.677 758.715,819.354 750.551,806.995C750.551,824.599 725.079,819.217 724.909,806.995C717.767,814.554 706.016,809.951 706.488,798.645C706.652,794.726 708.603,788.252 710.752,782.878C714.771,772.823 721.391,758.901 692.683,747.623C719.834,722.43 782.268,742.53 788.394,785.863C787.808,789.666 787.146,793.187 786.447,796.419ZM84.622,741.514C115.187,726.264 168.106,747.635 171.737,788.373C172.665,798.789 163.216,801.096 157.889,796.895C158.823,812.677 141.769,819.354 133.605,806.995C133.605,824.599 108.133,819.217 107.963,806.995C102.223,813.07 93.506,811.29 90.55,804.487C90.235,803.328 89.92,802.115 89.609,800.848C89.534,800.146 89.51,799.41 89.542,798.645C89.706,794.726 91.657,788.252 93.806,782.878C97.363,773.978 102.957,762.049 84.292,751.606C84.31,749.816 84.349,748.06 84.407,746.339C108.047,749.104 115.538,763.633 118.656,772.205C122.23,782.031 135.832,777.619 133.433,767.894C131.035,758.167 109.882,739.455 84.412,746.186C84.466,744.599 84.537,743.042 84.622,741.514ZM595.678,761.225C621.327,768.26 642.689,749.403 645.1,739.625C647.498,729.9 633.896,725.488 630.322,735.314C627.187,743.933 619.63,758.577 595.678,761.225ZM494.678,746.294C518.63,748.942 526.187,763.585 529.322,772.205C532.896,782.031 546.498,777.619 544.1,767.894C541.689,758.116 520.326,739.258 494.678,746.294ZM385.737,759.896C414.444,748.618 407.825,734.696 403.806,724.641C401.657,719.266 399.706,712.793 399.542,708.874C399.07,697.567 410.821,692.965 417.963,700.523C418.133,688.302 443.605,682.92 443.605,700.523C451.769,688.164 468.823,694.842 467.889,710.624C473.216,706.422 482.665,708.73 481.737,719.146C477.721,764.204 413.407,785.57 385.737,759.896ZM394.011,761.225C419.66,768.26 441.022,749.403 443.433,739.625C445.832,729.9 432.23,725.488 428.656,735.314C425.52,743.933 417.963,758.577 394.011,761.225ZM700.957,746.294C724.909,748.942 732.467,763.585 735.602,772.205C739.176,782.031 752.778,777.619 750.38,767.894C747.968,758.116 726.606,739.258 700.957,746.294ZM176.737,759.896C205.444,748.618 198.825,734.696 194.806,724.641C192.657,719.266 190.706,712.793 190.542,708.874C190.07,697.567 201.821,692.965 208.963,700.523C209.133,688.302 234.605,682.92 234.605,700.523C242.769,688.164 259.823,694.842 258.889,710.624C264.216,706.422 273.665,708.73 272.737,719.146C268.721,764.204 204.407,785.57 176.737,759.896ZM185.011,761.225C210.66,768.26 232.022,749.403 234.433,739.625C236.832,729.9 223.23,725.488 219.656,735.314C216.52,743.933 208.963,758.577 185.011,761.225ZM278.737,747.623C306.407,721.948 370.721,743.315 374.737,788.373C375.665,798.789 366.216,801.096 360.889,796.895C361.823,812.677 344.769,819.354 336.605,806.995C336.605,824.599 311.133,819.217 310.963,806.995C303.821,814.554 292.07,809.951 292.542,798.645C292.706,794.726 294.657,788.252 296.806,782.878C300.825,772.823 307.444,758.901 278.737,747.623ZM287.011,746.294C310.963,748.942 318.52,763.585 321.656,772.205C325.23,782.031 338.832,777.619 336.433,767.894C334.022,758.116 312.66,739.258 287.011,746.294Z" style="fill:rgb(118,91,122);fill-opacity:0.46;"/>
    </g>
</svg>
