<?xml version="1.0" encoding="UTF-8" standalone="no"?>
<!DOCTYPE svg PUBLIC "-//W3C//DTD SVG 1.1//EN" "http://www.w3.org/Graphics/SVG/1.1/DTD/svg11.dtd">
<svg width="180px" height="142px" version="1.1" xmlns="http://www.w3.org/2000/svg" xmlns:xlink="http://www.w3.org/1999/xlink" xml:space="preserve" xmlns:serif="http://www.serif.com/" style="fill-rule:evenodd;clip-rule:evenodd;stroke-linejoin:round;stroke-miterlimit:2;">
    <path d="M90,3L112.85,24.11L135.501,32.324L145.165,51.577L170,71L145.165,90.423L135.501,109.676L112.85,117.89L90,139L67.15,117.89L44.499,109.676L34.835,90.423L10,71L34.835,51.577L44.499,32.324L67.15,24.11L90,3ZM90,5.042L68.168,25.212C68.021,25.347 67.849,25.452 67.661,25.52L45.572,33.531L36.176,52.25C36.076,52.449 35.934,52.622 35.759,52.759C35.759,52.759 12.435,71 12.435,71L35.759,89.241C35.934,89.378 36.076,89.551 36.176,89.75C36.176,89.75 45.572,108.469 45.572,108.469L67.661,116.48C67.849,116.548 68.021,116.653 68.168,116.788L90,136.958L111.832,116.788C111.979,116.653 112.151,116.548 112.339,116.48L134.428,108.469L143.824,89.75C143.924,89.551 144.066,89.378 144.241,89.241C144.241,89.241 167.565,71 167.565,71L144.241,52.759C144.066,52.622 143.924,52.449 143.824,52.25C143.824,52.25 134.428,33.531 134.428,33.531L112.339,25.52C112.151,25.452 111.979,25.347 111.832,25.212L90,5.042Z" style="fill:rgb(150,127,153);"/>
    <path d="M90,31L180,71L90,111L-0,71L90,31ZM90,32.641L3.693,71C3.693,71 90,109.359 90,109.359L176.307,71L90,32.641Z" style="fill:rgb(150,127,153);"/>
    <path d="M90,-0L140,71L90,142L40,71L90,-0ZM90,2.605L41.835,71L90,139.395L138.165,71L90,2.605Z" style="fill:rgb(150,127,153);"/>
</svg>
