<svg version="1.0" xmlns="http://www.w3.org/2000/svg" width="400" height="400" style="fill: transparent;">
    <metadata>
    Created by Friend/Savantford (https://github.com/Savantford/) and ErrantPigeon/Yan-Jie Schnellbach (https://github.com/yschnellbach/) for the Shadow of the Weird Wizard for Foundry VTT
    </metadata>

    <path d="M0,100 A100,100 0 0 0 100,0 L300,0 A100,100 0 0 0 400,100 L400,300 A100,100 0 0 0 300,400 L100,400 A100,100 0 0 0 0,300 z" stroke="#49244F" stroke-width="10"/>

    <path d="M50,150 A112.5,112.5 0 0 0 150,50 L250,50 A112.5,112.5 0 0 0 350,150 L350,250 A112.5,112.5 0 0 0 250,350 L150,350 A112.5,112.5 0 0 0 50,250 z" stroke="#49244F" stroke-width="10"/>
</svg>
