<?xml version="1.0" encoding="UTF-8" standalone="no"?>
<!DOCTYPE svg PUBLIC "-//W3C//DTD SVG 1.1//EN" "http://www.w3.org/Graphics/SVG/1.1/DTD/svg11.dtd">
<svg width="512px" height="512px" version="1.1" xmlns="http://www.w3.org/2000/svg" xmlns:xlink="http://www.w3.org/1999/xlink" xml:space="preserve" xmlns:serif="http://www.serif.com/" style="fill-rule:evenodd;clip-rule:evenodd;stroke-linejoin:round;stroke-miterlimit:2;">
    <path d="M22.783,237.941L104.363,156.361L107.636,167.23L47.503,227.363L22.783,237.941ZM156.361,104.363L237.941,22.783L227.363,47.503L167.23,107.636L156.361,104.363ZM275.013,25.013L354.659,104.659L343.79,107.932L285.591,49.733L275.013,25.013ZM407.341,157.341L486.987,236.987L462.267,226.409L404.068,168.21L407.341,157.341ZM486.987,275.013L407.341,354.659L404.068,343.79L462.267,285.591L486.987,275.013ZM354.659,407.341L275.013,486.987L285.591,462.267L343.79,404.068L354.659,407.341ZM237.941,489.217L156.361,407.637L167.23,404.364L227.363,464.497L237.941,489.217ZM104.363,355.639L22.783,274.059L47.503,284.637L107.636,344.77L104.363,355.639ZM256,6L308.619,128.967L415.099,96.901L383.033,203.381L506,256L383.033,308.619L415.099,415.099L308.619,383.033L256,506L203.381,383.033L96.901,415.099L128.967,308.619L6,256L128.967,203.381L96.901,96.901L203.381,128.967L256,6ZM241.622,143.937C241.279,143.883 240.937,143.838 240.598,143.802C237.344,143.445 234.421,143.91 232.152,144.95L212.719,215.962L199.464,233.533C202.542,241.289 204.778,249.044 206.087,256.795L193.61,258.903C192.87,254.522 191.777,250.091 190.352,245.613L190.33,245.642C183.954,229.219 176.189,215.277 169.154,209.575C165.379,206.515 162.558,205.697 159.175,206.45C156.352,207.08 152.542,209.436 148.125,214.351C166.092,245.585 167.312,272.553 168.487,290.176C168.864,295.822 168.127,300.915 168.478,304.805L168.557,305.662L168.401,306.509C165.32,323.4 170.949,336.628 180.293,346.134C189.61,355.614 202.86,360.879 213.779,360.633C227.411,359.828 236.604,356.525 246.669,350.24C255.725,344.376 271.503,335.923 280.538,330.437C308.498,313.465 352.594,298.195 359.788,295.75C362.307,288.666 358.855,280.213 353.406,276.184L299.4,297.239C297.472,292.101 295.135,287.222 292.457,282.558L363.8,225.439C364.212,221.235 362.914,216.026 360.197,211.706C357.745,207.808 354.394,205.117 351.688,203.994L277.742,262.171C274.205,258.102 270.442,254.177 266.521,250.35L323.5,173.238C321.152,168.279 318.289,165.206 314.629,162.825C311.235,160.618 306.778,159.035 301.812,157.529L248.751,234.266C244.299,230.445 239.788,226.661 235.289,222.869L255.756,151.454C253.428,148.761 249.329,145.982 244.755,144.639C243.704,144.33 242.654,144.096 241.622,143.937Z"/>
</svg>
