<svg xmlns="http://www.w3.org/2000/svg" viewBox="0 0 512 512" width="512" height="512"><g class="" transform="translate(0,0)" style=""><path d="M56.781,402.657C49.305,400.047 41.949,397.272 34.703,394.349C14.073,387.395 27.144,345.156 48.662,351.208C64.16,355.718 79.517,360.71 95.481,363.957L56.781,402.657ZM135.4,324.038L24.343,310.086L167.47,291.969L135.4,324.038ZM216.599,242.839C222.768,228.813 228.895,214.768 235.546,201.142L186.996,191.999L129.561,248.275C111.275,265.016 85.132,238.359 95.435,223.549C119.001,193.802 142.568,170.866 180.557,142.084C209.661,147.209 238.379,152.464 266.066,158.89C268.934,167.027 273.322,174.373 279.123,180.316L216.599,242.839ZM292.014,167.424C280.376,155.211 276.139,134.667 283.345,114.895C294.137,85.284 312.04,77.348 326.978,77.348C329.812,77.348 334.516,77.76 337.091,78.623C345.505,81.436 353.838,89.633 358.434,101.005L292.014,167.424ZM371.154,194.063C378.025,197.421 384.72,201.002 391.239,204.876L454.469,150.931C466.059,140.474 496.837,168.471 484.99,183.229C460.522,207.71 433.478,229.602 401.799,253.297C388.865,255.411 358.855,242.032 334.311,230.906L371.154,194.063ZM328.932,236.285C321.53,255.239 313.443,286.471 299.269,304.075C321.29,307.037 345.909,305.621 358.916,314.249L459.62,393.963C466.317,400.53 445.97,438.906 426.138,426.028C288.86,317.339 234.129,361.124 153.643,424.998C149.645,424.536 145.683,424.023 141.756,423.461L328.932,236.285ZM140.348,249.313C140.756,248.988 141.16,248.642 141.561,248.275L164.799,225.506L213.343,219.419C210.037,229.472 203.426,241.589 193.01,256.086L140.348,249.313ZM84.11,231.506C84.235,236.713 87.036,242.179 91.284,246.374L24.343,238.419L84.11,231.506ZM153.01,153.086L126.676,174.086L24.343,166.753L153.01,153.086ZM453.395,34.029L477.977,58.611L58.605,477.983L34.023,453.4L453.395,34.029Z" fill="#fff" fill-opacity="1"/></g></svg>
