<svg xmlns="http://www.w3.org/2000/svg" viewBox="0 0 512 512" width="512" height="512"><g class="" transform="translate(0,0)" style=""><path d="M183.989,160.307C212.541,165.884 240.713,171.602 267.875,178.594C273.307,195.69 284.299,209.577 300.09,215.462C316.893,221.768 334.2,217.144 348.223,205.639C363.131,212.379 377.28,219.806 390.672,228.634L452.701,169.934C464.072,158.555 494.265,189.02 482.643,205.079C458.639,231.717 432.109,255.539 401.031,281.323C387.892,283.706 356.792,268.011 332.283,255.68C324.198,274.597 316.113,314.997 300.447,336.577C322.05,339.8 346.202,338.259 358.962,347.648L457.755,434.388C464.324,441.535 444.363,483.293 424.908,469.28C290.236,351.011 236.544,398.655 157.586,468.159C115.011,462.694 76.606,450.783 40.904,434.808C20.665,427.241 33.488,381.279 54.598,387.865C80.648,396.273 106.294,406.222 135.225,405.521C190.685,363.062 209.383,289.451 237.934,224.571L190.306,214.621L133.961,275.858C116.022,294.075 90.376,265.068 100.483,248.953C123.602,216.583 146.721,191.626 183.989,160.307ZM330.413,73.974C333.667,73.974 339.07,74.499 342.028,75.598C360.96,82.62 379.536,115.966 366.181,154.48C352.944,192.648 324.839,208.86 304.303,199.48C280.943,188.81 269.563,154.48 280.299,121.806C292.694,84.084 313.256,73.974 330.413,73.974ZM147.287,372.268L73.738,372.268L25.738,347.301L165.606,347.301C160.098,356.128 154.059,364.507 147.287,372.268ZM180.277,320.603L73.738,320.603L25.738,295.636L191.633,295.636C188.617,302.71 185.502,309.704 182.229,316.566C181.584,317.917 180.934,319.263 180.277,320.603ZM202.554,268.937L162.072,268.937L185.045,243.97L212.482,243.97C209.145,252.264 205.866,260.612 202.554,268.937ZM84.204,268.937L73.738,268.937L25.738,243.97L85.04,243.97C81.56,251.652 81.454,260.556 84.204,268.937ZM104.396,217.272L73.738,217.272L25.738,192.305L126.175,192.305C118.437,200.496 111.284,208.716 104.396,217.272ZM153.547,165.606L73.738,165.606L25.738,140.639L260.504,140.639C260.082,147.427 260.411,154.087 261.408,160.479C237.2,154.57 212.275,149.53 187.057,144.604C182.31,143.677 177.399,144.946 173.696,148.058C166.5,154.105 159.815,159.924 153.547,165.606ZM266.072,113.941L73.738,113.941L25.738,88.974L277.87,88.974C273.521,95.809 269.53,104.047 266.072,113.941Z"  fill="#fff" fill-opacity="1"/></g></svg>
