<svg xmlns="http://www.w3.org/2000/svg" viewBox="0 0 512 512" width="512" height="512"><g class="" transform="translate(0,0)" style=""><path d="M32.685,426.753C25.943,411.41 37.576,382.554 54.598,387.865C58.862,389.241 63.116,390.659 67.374,392.064L32.685,426.753ZM87.17,372.268L73.738,372.268L25.738,347.301L112.137,347.301L87.17,372.268ZM138.836,320.603L73.738,320.603L25.738,295.636L163.803,295.636L138.836,320.603ZM190.501,268.937L162.072,268.937L185.045,243.97L212.482,243.97C211.814,245.629 211.149,247.29 210.485,248.953L190.501,268.937ZM235.398,224.041L190.306,214.621L133.961,275.858C116.022,294.075 90.376,265.068 100.483,248.953C123.602,216.583 146.721,191.626 183.989,160.307C212.541,165.884 240.713,171.602 267.875,178.594C268.9,181.821 270.124,184.933 271.54,187.899L235.398,224.041ZM282.615,176.824C275.37,161.509 273.874,141.361 280.299,121.806C292.694,84.084 313.256,73.974 330.413,73.974C333.667,73.974 339.07,74.499 342.028,75.598C349.861,78.503 357.632,85.914 363.107,96.332L282.615,176.824ZM355.975,209.242C368.057,215.02 379.622,221.35 390.672,228.634L452.701,169.934C464.072,158.555 494.265,189.02 482.643,205.079C458.639,231.717 432.109,255.539 401.031,281.323C387.892,283.706 356.792,268.011 332.283,255.68C324.198,274.597 316.113,314.997 300.447,336.577C322.05,339.8 346.202,338.259 358.962,347.648L457.755,434.388C464.324,441.535 444.363,483.293 424.908,469.28C290.236,351.011 236.544,398.655 157.586,468.159C140.029,465.906 123.181,462.556 106.94,458.277L355.975,209.242ZM84.204,268.937L73.738,268.937L25.738,243.97L85.04,243.97C81.56,251.652 81.454,260.556 84.204,268.937ZM104.396,217.272L73.738,217.272L25.738,192.305L126.175,192.305C118.437,200.496 111.284,208.716 104.396,217.272ZM153.547,165.606L73.738,165.606L25.738,140.639L260.504,140.639C260.082,147.427 260.411,154.087 261.408,160.479C237.2,154.57 212.275,149.53 187.057,144.604C182.31,143.677 177.399,144.946 173.696,148.058C166.5,154.105 159.815,159.924 153.547,165.606ZM266.072,113.941L73.738,113.941L25.738,88.974L277.87,88.974C273.521,95.809 269.53,104.047 266.072,113.941ZM453.395,34.029L477.977,58.611L58.605,477.983L34.023,453.4L453.395,34.029Z" fill="#fff" fill-opacity="1"/></g></svg>