<svg xmlns="http://www.w3.org/2000/svg" viewBox="0 0 512 512" width="512" height="512"><g class="" transform="translate(0,0)" style=""><path d="M326.978,77.348C329.812,77.348 334.516,77.76 337.091,78.623C353.575,84.135 369.749,110.311 358.12,140.543C346.596,170.503 322.125,183.229 304.245,175.866C283.906,167.491 273.997,140.543 283.345,114.895C294.137,85.284 312.04,77.348 326.978,77.348ZM180.557,142.084C209.661,147.209 238.379,152.464 266.066,158.89C271.604,174.601 282.807,187.363 298.905,192.771C316.032,198.566 333.675,194.317 347.969,183.744C363.165,189.938 377.588,196.763 391.239,204.876L454.469,150.931C466.059,140.474 496.837,168.471 484.99,183.229C460.522,207.71 433.478,229.602 401.799,253.297C388.406,255.486 356.704,241.063 331.721,229.731C323.479,247.116 315.237,284.243 299.269,304.075C321.29,307.037 345.909,305.621 358.916,314.249L459.62,393.963C466.317,400.53 445.97,438.906 426.138,426.028C288.86,317.339 234.129,361.124 153.643,424.998C110.244,419.976 71.096,409.03 34.703,394.349C14.073,387.395 27.144,345.156 48.662,351.208C75.217,358.935 101.359,368.078 130.849,367.434C187.383,328.414 206.442,260.766 235.546,201.142L186.996,191.999L129.561,248.275C111.275,265.016 85.132,238.359 95.435,223.549C119.001,193.802 142.568,170.866 180.557,142.084ZM140.348,249.313C140.756,248.988 141.16,248.642 141.561,248.275L164.799,225.506L213.343,219.419C210.037,229.472 203.426,241.589 193.01,256.086L140.348,249.313ZM84.11,231.506C84.235,236.713 87.036,242.179 91.284,246.374L24.343,238.419L84.11,231.506ZM182.343,290.086C178.975,298.924 171.045,310.804 157.01,326.753L24.343,310.086L182.343,290.086ZM153.01,153.086L126.676,174.086L24.343,166.753L153.01,153.086Z" fill="#fff" fill-opacity="1"/></g></svg>
