<svg xmlns="http://www.w3.org/2000/svg" viewBox="0 0 512 512" width="512" height="512"><g class="" transform="translate(0,0)" style=""><path d="M269.612,45.975L397.952,174.315C405.419,181.782 405.419,194.072 397.952,201.539L269.612,329.879C262.145,337.346 249.855,337.346 242.388,329.879L114.048,201.539C106.581,194.072 106.581,181.782 114.048,174.315L242.388,45.975C249.855,38.508 262.145,38.508 269.612,45.975ZM273.678,170.249C263.98,160.552 248.02,160.552 238.322,170.249C228.625,179.947 228.625,195.907 238.322,205.605C248.02,215.302 263.98,215.302 273.678,205.605C283.375,195.907 283.375,179.947 273.678,170.249ZM386.49,237.5L397.952,248.961C405.419,256.428 405.419,268.718 397.952,276.185L269.612,404.525C262.145,411.992 249.855,411.992 242.388,404.525L114.048,276.185C106.581,268.718 106.581,256.428 114.048,248.961L125.51,237.5L242.388,354.379C249.855,361.846 262.145,361.846 269.612,354.379L386.49,237.5ZM386.49,299L397.952,310.461C405.419,317.928 405.419,330.218 397.952,337.685L269.612,466.025C262.145,473.492 249.855,473.492 242.388,466.025L114.048,337.685C106.581,330.218 106.581,317.928 114.048,310.461L125.51,299L242.388,415.879C249.855,423.346 262.145,423.346 269.612,415.879L386.49,299Z" fill="#fff" fill-opacity="1"/></g></svg>