<svg xmlns="http://www.w3.org/2000/svg" viewBox="0 0 512 512" width="512" height="512"><g class="" transform="translate(0,0)" style=""><path d="M211.832,39.06C196.81,54.37 195.938,61.89 188.359,82.963C191.049,92.103 193.513,99.89 197.507,108.08C202.665,108.363 208.272,108.55 212.849,108.51C206.739,98.302 204.573,89.19 208.116,73.236C212.416,92.286 220.963,103.229 229.319,107.568C232.351,107.234 235.276,106.854 238.095,106.422C231.84,96.085 229.601,86.952 233.181,70.834C237.078,88.104 244.468,98.71 252.041,103.774C256.699,102.731 261.324,101.531 265.968,100.24C260.451,90.55 258.608,81.548 261.998,66.283C265.355,81.159 271.305,91.093 277.73,96.799C282.825,95.229 287.026,93.901 291.582,92.452C290.897,86.67 291.166,80.265 292.646,73.337L294.529,64.537L312.132,68.297L310.252,77.101C306.616,94.109 311.576,101.521 317.558,105.767C323.538,110.011 332.248,109.227 333.588,108.367L341.164,103.507L350.884,118.657C347.027,120.997 342.984,124.097 339.062,125.717C357.712,153.395 371.245,187.182 363.818,219.267C361.453,228.741 357.788,237.51 352.103,244.253C364.828,256.383 373.318,266.279 383.135,278.753C379.422,276.366 375.549,273.909 371.443,271.383C360.046,264.373 347.611,257.169 336.463,251.581C320.451,243.781 305.096,233.376 288.733,231.058C266.181,228.091 242.463,235.855 215.413,252.118C223.285,260.838 228.695,267.592 235.725,276.406C228.745,272.068 221.073,267.336 212.565,262.176C180.011,244.696 147.175,213.949 112.127,212.186C81.567,211.094 52.175,227.141 22.45,250.754L18,254.293L18,494L49.963,494C95.147,476.563 130.25,436.346 146.993,399.48L147.243,398.916L147.568,398.396C157.031,383.144 158.716,368.708 164.358,353.664C170.003,338.62 181.265,323.946 206.242,314.908C210.595,312.748 211.312,313.493 214.875,316.303C245.343,340.313 272.165,348.323 298.115,348.653C330.725,347.096 356.557,338.771 383.797,329.273C379.831,332.801 375.027,336.483 369.811,340.035C354.488,350.471 335.594,359.963 323.507,364.835C308.791,366.841 295.147,367.251 281.54,365.451C271.58,377.541 255.966,385.809 244.19,392.124C308.11,406.147 360.07,393.034 411.576,369.228C402.054,367.411 392.568,365.536 383.582,363.808C415.216,359.386 448.566,360.042 478.287,360.278C482.371,360.258 485.5,359.825 486.987,359.392C501.154,308.32 482.892,261.499 452.693,214.176C422.43,166.751 380.513,120.069 350.797,71.136C329.697,53.879 302.197,39.681 273.275,24.961C252.889,29.211 232.249,34.297 211.832,39.061L211.832,39.06ZM297.217,109.55C285.539,113.15 273.507,116.975 263.365,119.562C265.892,124.492 267.1,130.226 266.76,135.764C277.788,136.641 287.842,133.746 295.725,129.408C300.57,126.742 304.465,123.36 307.139,120.448C303.285,117.713 299.879,114.038 297.216,109.548L297.217,109.55ZM243.004,124.248C231.244,125.391 218.414,126.61 207.944,126.484C210.334,131.256 211.724,138.551 216.454,141.324C227.634,142.488 237.054,143.321 246.364,139.578C251.799,136.364 248.182,124.52 243.004,124.248ZM208.024,333.58C190.431,340.813 185.438,348.72 181.211,359.986C177.213,370.646 174.984,385.062 166.731,401C199.021,394.62 236.356,379.77 260.583,360.912C243.566,355.814 226.03,347.06 208.026,333.58L208.024,333.58ZM217.342,404.965C198.619,412.202 176.506,421.109 157.646,419.027C143.774,446.68 124.012,474.03 91.762,494L176.442,494C198.006,464.202 214.509,437.425 217.342,404.965Z" fill="#fff" fill-opacity="1"/></g></svg>
