<svg xmlns="http://www.w3.org/2000/svg" viewBox="0 0 512 512" width="512" height="512"><g class="" transform="translate(0,0)" style=""><path d="M18,441.438L18,254.293L22.45,250.754C52.175,227.141 81.567,211.094 112.127,212.186C143.687,213.774 173.453,238.863 202.834,256.604L18,441.438ZM346.936,112.503L341.164,103.507L333.588,108.367C332.248,109.227 323.538,110.011 317.558,105.767C311.576,101.521 306.616,94.109 310.252,77.101L312.132,68.297L294.529,64.537L292.646,73.337C291.166,80.265 290.897,86.67 291.582,92.452C287.026,93.901 282.825,95.229 277.73,96.799C271.305,91.093 265.355,81.159 261.998,66.283C258.608,81.548 260.451,90.55 265.968,100.24C261.324,101.531 256.699,102.731 252.041,103.774C244.468,98.71 237.078,88.104 233.181,70.834C229.601,86.952 231.84,96.085 238.095,106.422C235.276,106.854 232.351,107.234 229.319,107.568C220.963,103.229 212.416,92.286 208.116,73.236C204.573,89.19 206.739,98.302 212.849,108.51C208.272,108.55 202.665,108.363 197.507,108.08C193.513,99.89 191.049,92.103 188.359,82.963C195.938,61.89 196.81,54.371 211.832,39.061C232.249,34.297 252.889,29.211 273.275,24.961C302.197,39.681 329.697,53.879 350.797,71.136C355.439,78.78 360.378,86.369 365.525,93.914L346.936,112.503ZM410.361,154.856C425.347,174.645 440.039,194.346 452.693,214.176C482.892,261.499 501.154,308.32 486.987,359.392C485.5,359.825 482.371,360.258 478.287,360.278C448.566,360.042 415.216,359.386 383.582,363.808C392.568,365.536 402.054,367.411 411.576,369.228C360.07,393.034 308.11,406.147 244.19,392.124C255.966,385.809 271.58,377.541 281.54,365.451C295.147,367.251 308.791,366.841 323.507,364.835C335.594,359.963 354.488,350.471 369.811,340.035C375.027,336.483 379.831,332.801 383.797,329.273C356.557,338.771 330.725,347.096 298.115,348.653C278.027,348.398 257.416,343.54 234.996,330.221L321.458,243.759C326.429,246.402 331.413,249.121 336.463,251.581C347.611,257.169 360.046,264.373 371.443,271.383C375.549,273.909 379.422,276.366 383.135,278.753C373.318,266.279 364.828,256.383 352.103,244.253C357.788,237.51 361.453,228.741 363.818,219.267C365.344,212.673 365.985,206.008 365.879,199.338L410.361,154.856ZM222.028,343.189C235.149,351.381 248.008,357.145 260.583,360.912C236.356,379.77 199.021,394.62 166.731,401C167.583,399.354 168.371,397.724 169.104,396.113L222.028,343.189ZM297.217,109.55C299.88,114.039 303.286,117.713 307.139,120.448C304.465,123.36 300.57,126.742 295.725,129.408C287.842,133.746 277.788,136.641 266.76,135.764C267.1,130.226 265.892,124.492 263.365,119.562C273.507,116.975 285.539,113.15 297.217,109.55ZM243.004,124.248C248.182,124.52 251.799,136.364 246.364,139.578C237.054,143.321 227.634,142.488 216.454,141.324C211.724,138.551 210.334,131.256 207.944,126.484C218.414,126.61 231.244,125.391 243.004,124.248ZM217.342,404.965C214.509,437.425 198.006,464.202 176.442,494L91.762,494C124.012,474.03 143.774,446.68 157.646,419.027C176.506,421.109 198.619,412.202 217.342,404.965ZM453.395,34.029L477.977,58.611L58.605,477.983L34.023,453.4L453.395,34.029Z" fill="#fff" fill-opacity="1"/></g></svg>
