<svg xmlns="http://www.w3.org/2000/svg" viewBox="0 0 512 512" width="512" height="512"><g class="" transform="translate(0,0)" style=""><path d="M242.388,466.025L114.048,337.685C106.581,330.218 106.581,317.928 114.048,310.461L242.388,182.121C249.855,174.654 262.145,174.654 269.612,182.121L397.952,310.461C405.419,317.928 405.419,330.218 397.952,337.685L269.612,466.025C262.145,473.492 249.855,473.492 242.388,466.025ZM332.566,341.22C332.734,341.399 332.904,341.574 333.078,341.748C342.774,351.444 358.732,351.446 368.43,341.751C378.128,332.053 378.128,316.093 368.43,306.395C358.732,296.698 342.772,296.698 333.075,306.395C323.576,315.897 323.348,331.445 332.566,341.22ZM285.698,389.127C295.396,398.825 311.356,398.825 321.054,389.127C330.752,379.429 330.752,363.469 321.054,353.772C311.356,344.074 295.396,344.074 285.698,353.772C276.001,363.469 276.001,379.429 285.698,389.127ZM143.061,341.22C143.229,341.399 143.4,341.574 143.573,341.748C153.27,351.444 169.227,351.446 178.925,341.751C188.623,332.053 188.623,316.093 178.925,306.395C169.228,296.698 153.268,296.698 143.57,306.395C134.071,315.897 133.844,331.445 143.061,341.22ZM237.813,246.468C237.981,246.646 238.152,246.822 238.325,246.995C248.022,256.692 263.979,256.693 273.678,246.998C283.375,237.301 283.375,221.341 273.678,211.643C263.98,201.945 248.02,201.945 238.322,211.643C228.823,221.145 228.596,236.692 237.813,246.468ZM237.813,435.973C237.981,436.151 238.152,436.327 238.325,436.5C248.022,446.197 263.979,446.198 273.678,436.503C283.375,426.805 283.375,410.845 273.678,401.148C263.98,391.45 248.02,391.45 238.322,401.148C228.823,410.65 228.596,426.197 237.813,435.973ZM190.946,294.375C200.644,304.072 216.604,304.072 226.302,294.375C235.999,284.677 235.999,268.717 226.302,259.019C216.604,249.322 200.644,249.322 190.946,259.019C181.248,268.717 181.248,284.677 190.946,294.375ZM125.51,274.5L114.048,263.039C106.581,255.572 106.581,243.282 114.048,235.815L242.388,107.475C249.855,100.008 262.145,100.008 269.612,107.475L397.952,235.815C405.419,243.282 405.419,255.572 397.952,263.039L386.49,274.5L269.612,157.621C262.145,150.154 249.855,150.154 242.388,157.621L125.51,274.5ZM125.51,213L114.048,201.539C106.581,194.072 106.581,181.782 114.048,174.315L242.388,45.975C249.855,38.508 262.145,38.508 269.612,45.975L397.952,174.315C405.419,181.782 405.419,194.072 397.952,201.539L386.49,213L269.612,96.121C262.145,88.654 249.855,88.654 242.388,96.121L125.51,213Z" fill="#fff" fill-opacity="1"/></g></svg>