<svg xmlns="http://www.w3.org/2000/svg" viewBox="0 0 512 512" width="512" height="512"><g class="" transform="translate(0,0)" style=""><path d="M96.703,362.735C93.412,355.537 90.607,348.252 88.34,340.959C77.893,307.351 123.393,300.461 132.514,326.924L96.703,362.735ZM150.618,308.821C152.593,291.028 144.516,272.305 122.907,265.447C69.437,248.474 69.202,200.958 119.214,148.992C77.793,204.251 156.642,247.295 191.035,230.206C221.409,215.114 221.39,192.263 199.759,179.194C178.339,166.254 163.774,126.983 191.37,100.999C206.232,87.006 240.871,86.71 240.288,115.905C239.958,132.401 223.453,142.697 206.807,145.968C230.432,167.178 282.602,142.973 274.262,97.977C267.314,60.501 239.814,36.505 195.729,56.363C236.879,11.517 293.682,38.881 313.864,58.376L313.865,58.377C314.456,58.947 315.034,59.516 315.6,60.084L315.601,60.087C338.465,83.04 341.549,104.041 336.226,123.213L254.099,205.339L253.908,204.007L253.606,205.833L150.618,308.821ZM383.658,181.559C439.274,241.4 396.684,329.807 327.477,349.075C367.764,358.357 392.677,349.666 411.194,337.601C390.446,414.171 327.974,481.127 254.801,479.9C212.321,479.187 171.449,456.906 140.085,425.132L224.24,340.977L212.956,363.511L238.484,350.802L252.891,443.834L267.296,350.836L292.959,363.629L279.594,336.924L332.449,323.946L279.108,310.833L292.657,283.809L270.255,294.962L328.15,237.067C350.654,237.657 371.655,218.706 371.063,194.154L383.658,181.559ZM453.395,34.029L477.977,58.611L58.605,477.983L34.023,453.4L453.395,34.029Z" fill="#fff" fill-opacity="1"/></g></svg>
