<svg xmlns="http://www.w3.org/2000/svg" viewBox="0 0 512 512" width="512" height="512">
    <defs>
        <filter id="shadow">
            <feDropShadow dx="0" dy="0" stdDeviation="5" />
        </filter>
    </defs>
    <g class="" transform="translate(0,0)">
        <path d="M215.236,421.562L26.485,352.198L20.36,349.948L20.36,110.135L39.048,110.135L39.048,336.916L256.016,416.605L472.954,336.915L472.954,110.166L491.64,110.166L491.64,349.947L485.515,352.197L301.486,419.822L301.486,437.385C273.314,446.728 238.446,447.945 215.236,439.915L215.236,421.562ZM454.578,78.789L454.578,321.323L265.921,393.29C284.193,347.733 308.876,336.669 338.171,330.103C369.079,323.175 406.073,324.052 437.329,298.789L425.579,284.259C400.259,304.722 367.993,304.282 334.079,311.885C308.802,317.549 283.154,329.265 263.359,358.415L263.359,149.603C316.225,78.891 389.4,96.181 454.578,78.789ZM57.276,78.759C117.258,99.401 180.56,83.111 244.254,146.323L244.254,354.135C224.898,324.985 196.186,317.307 171.101,313.605C131.44,307.752 112.891,308.192 88.132,287.729L75.143,300.759C107.456,330.323 134.379,325.895 168.101,330.323C197.239,334.149 226.387,346.953 244.254,392.51L57.277,321.293L57.276,78.759Z"
            fill="#775B7B" fill-opacity="0.15" style="filter:url(#shadow);"
        />
    </g>
</svg>
