<svg xmlns="http://www.w3.org/2000/svg" viewBox="0 0 512 512" width="512" height="512"><g class="" transform="translate(0,0)" style=""><path d="M372.092,426.318C432.554,432.155 463.642,440.351 463.642,451.943C463.642,470.051 365.811,484.753 245.309,484.753C124.808,484.753 26.976,470.051 26.976,451.943C26.976,435.148 102.121,422.284 210.457,420.36C222.434,424.416 240.739,432.15 254.82,440.892C265.795,447.706 300.424,453.729 327.801,448.728C341.657,444.345 361.21,433.667 372.092,426.318ZM109.052,253.384C120.329,236.081 148.282,234.283 171.436,249.372C194.59,264.461 204.233,290.759 192.957,308.063C181.681,325.366 153.728,327.164 130.574,312.075C107.42,296.986 97.776,270.687 109.052,253.384ZM201.189,272.417C210.022,265.247 219.433,259.681 221.489,258.805C221.489,258.805 253.942,240.534 260.027,221.352C266.111,202.169 246.507,133.77 255.82,132.305L270.285,130.03C279.598,128.565 306.474,210.455 301.079,235.955C298.388,248.674 263.418,289.678 263.418,289.678L332.258,336.846C332.258,336.846 338.001,292.74 355.163,267.444C363.21,255.582 370.923,247.011 385.661,244.239C421.301,237.534 481.029,242.257 481.029,242.257L482.823,273.744C482.823,273.744 414.83,272.025 395.416,282.789C382.711,289.833 371.137,339.543 371.137,339.543C371.137,339.543 386.114,331.598 394.39,330.408C402.518,329.239 423.548,330.974 442.548,333.258C466.677,336.158 489.543,344.752 495.506,351.006L481.597,376.514C464.886,375.292 431.296,364.541 413.462,368.675C388.698,374.415 384.994,375.912 375.109,382.86C359.82,393.605 347.232,407.583 328.801,414.573C317.758,418.969 266.795,414.546 255.82,406.378C231.505,388.281 221.43,384.511 187.253,374.514C167.491,368.734 108.185,379.067 88.283,379.535C82.754,379.666 73.987,376.404 70.361,372.296C59.291,359.75 9.846,301.958 17.245,296.493L29.419,284.765C36.818,279.3 84.746,337.767 94.85,341.4C101.828,343.909 155.851,336.158 155.851,336.158C155.851,336.158 157.634,332.946 160.509,327.992C176.559,328.238 190.784,322.223 198.592,310.242C205.657,299.401 206.132,285.726 201.189,272.417Z" fill="#fff" fill-opacity="1"/></g></svg>
