<svg xmlns="http://www.w3.org/2000/svg" viewBox="0 0 512 512" width="512" height="512"><g class="" transform="translate(0,0)" style=""><path d="M85.538,373.9L26.485,352.198L20.36,349.948L20.36,110.135L39.048,110.135L39.048,336.916L100.099,359.339L85.538,373.9ZM115.839,343.599L57.277,321.293L57.276,78.759C117.258,99.401 180.56,83.111 244.254,146.323L244.254,215.185L148.905,310.533C123.479,307.036 107.756,303.948 88.132,287.729L75.143,300.759C95.411,319.303 113.559,324.473 132.594,326.844L115.839,343.599ZM263.359,196.08L263.359,149.603C293.3,109.554 329.757,97.734 367.585,91.853L263.359,196.08ZM454.578,110.639L454.578,321.323L265.921,393.29C284.193,347.733 308.876,336.669 338.171,330.103C369.079,323.175 406.073,324.052 437.329,298.789L425.579,284.259C400.259,304.722 367.993,304.282 334.079,311.885C308.802,317.549 283.154,329.265 263.359,358.415L263.359,301.859L454.578,110.639ZM244.254,320.964L244.254,354.135C239.566,347.076 234.33,341.276 228.73,336.487L244.254,320.964ZM215.495,349.722C226.594,359.1 236.489,372.712 244.254,392.51L192.441,372.776L215.495,349.722ZM177.463,387.754L256.016,416.605L472.954,336.915L472.954,110.166L491.64,110.166L491.64,349.947L485.515,352.197L301.486,419.822L301.486,437.385C273.314,446.728 238.446,447.945 215.236,439.915L215.236,421.562L162.891,402.326L177.463,387.754ZM453.395,34.029L477.977,58.611L58.605,477.983L34.023,453.4L453.395,34.029Z" fill="#fff" fill-opacity="1"/></g></svg>