<?xml version="1.0" encoding="UTF-8" standalone="no"?>
<!DOCTYPE svg PUBLIC "-//W3C//DTD SVG 1.1//EN" "http://www.w3.org/Graphics/SVG/1.1/DTD/svg11.dtd">
<svg width="512px" height="512px" version="1.1" xmlns="http://www.w3.org/2000/svg" xmlns:xlink="http://www.w3.org/1999/xlink" xml:space="preserve" xmlns:serif="http://www.serif.com/" style="fill-rule:evenodd;clip-rule:evenodd;stroke-linejoin:round;stroke-miterlimit:2;">
    <path d="M22.783,237.941L104.363,156.361L107.636,167.23L47.503,227.363L22.783,237.941ZM156.361,104.363L237.941,22.783L227.363,47.503L167.23,107.636L156.361,104.363ZM275.013,25.013L354.659,104.659L343.79,107.932C321.816,85.958 301.312,65.454 285.591,49.733L275.013,25.013ZM407.341,157.341L486.987,236.987L462.267,226.409C446.616,210.758 426.099,190.241 404.068,168.21L407.341,157.341ZM486.987,275.013L407.341,354.659L404.068,343.79L462.267,285.591L486.987,275.013ZM354.659,407.341L275.013,486.987L285.591,462.267L343.79,404.068L354.659,407.341ZM237.941,489.217L156.361,407.637L167.23,404.364L227.363,464.497L237.941,489.217ZM104.363,355.639L22.783,274.059L47.503,284.637L107.636,344.77L104.363,355.639Z" fill="#fff" fill-opacity="1"/>
    <path d="M256,6L308.619,128.967L415.099,96.901L383.033,203.381L506,256L383.033,308.619L415.099,415.099L308.619,383.033L256,506L203.381,383.033L96.901,415.099L128.967,308.619L6,256L128.967,203.381L96.901,96.901L203.381,128.967L256,6ZM255.219,73.619L147.615,302.561L249.689,269.141L242.972,438.94L363.754,179.544L252.562,215.95L255.219,73.619Z" fill="#fff" fill-opacity="1"/>
</svg>
