<svg xmlns="http://www.w3.org/2000/svg" viewBox="0 0 512 512" width="512" height="512">
    <g class="" transform="translate(0,0)">
        <path d="M315.6,60.084L315.601,60.087C387.455,132.222 263.951,185.074 298.094,222.491C335.553,263.541 401.176,210.138 355.482,159.061C450.321,216.187 406.057,327.198 327.477,349.075C367.764,358.357 392.677,349.666 411.194,337.601C390.446,414.171 327.974,481.127 254.801,479.9C179.827,478.641 109.865,410.205 88.34,340.959C76.469,302.773 136.83,299.079 133.983,339.614C157.334,321.665 159.083,276.928 122.907,265.447C69.437,248.474 69.202,200.958 119.214,148.992C77.793,204.251 156.642,247.295 191.035,230.206C221.409,215.114 221.39,192.263 199.759,179.194C178.339,166.254 163.774,126.983 191.37,100.999C206.232,87.006 240.871,86.71 240.288,115.905C239.958,132.401 223.453,142.697 206.807,145.968C230.432,167.178 282.602,142.973 274.262,97.977C267.314,60.501 239.814,36.505 195.729,56.363C236.879,11.517 293.682,38.881 313.864,58.376L313.865,58.377C314.456,58.947 315.034,59.516 315.6,60.084ZM253.908,204.007L238.619,296.519L213.258,283.91L226.758,310.85L173.551,323.912L226.304,336.856L212.956,363.511L238.484,350.802L252.891,443.834L267.296,350.836L292.959,363.629L279.594,336.924L332.449,323.946L279.108,310.833L292.657,283.809L267.196,296.485L253.908,204.007Z"
            fill="#000000"
        />
    </g>
</svg>
